# xmcd
#
# Track frame offsets: 
#        150
#        14933
#        26928
#        38778
#        48013
#        60103
#        72390
#        84743
#        96633
#        104968
#        115840
#        125843
#        138965
#        151190
#        159405
#        170190
#        181300
#        192658
#        203858
#        217773
#        228375
#        238485
#        251188
#        261156
#        270968
#        280543
#        291116
#        303686
#        316334
#        328719
#
# Disc length: 4539 seconds
#
# Revision: 0
# Processed by: cddbd v1.5.2PL0 Copyright (c) Steve Scherf et al.
# Submitted via: ExactAudioCopy v0.99pb4
#
DISCID=ce11b91e
DTITLE=Chuck Berry - The Best
DYEAR=2003
DGENRE=Rock and Roll
TTITLE0=Reelin' And Rockin'
TTITLE1=Johnny B. Goode
TTITLE2=Nadine
TTITLE3=Don't You Lie To Me
TTITLE4=Round And Round
TTITLE5=No Particular Place To Go
TTITLE6=Childhood Sweetheart
TTITLE7=My Little Love-light
TTITLE8=I'm Talking About You
TTITLE9=Roll Over Beethoven
TTITLE10=Memphis Tennessee
TTITLE11=I Got A Booking
TTITLE12=You Never Can Tell
TTITLE13=Jamaica Farewell
TTITLE14=Thirty Days
TTITLE15=Back In The USA
TTITLE16=Rock And Roll Music
TTITLE17=House Of Blue Lights
TTITLE18=Wee Wee Hours
TTITLE19=Deep Feeling
TTITLE20=I Just Want To Make Love To You
TTITLE21=How You've Changed
TTITLE22=Worried Life Blues
TTITLE23=Confessin' The Blues 
TTITLE24=Still Got The Blues
TTITLE25=Driftin' Blues
TTITLE26=Route 66 
TTITLE27=Sweet Sixteen
TTITLE28=The Things That I Used To Do
TTITLE29=St. Louis Blues
EXTD=
EXTT0=
EXTT1=
EXTT2=
EXTT3=
EXTT4=
EXTT5=
EXTT6=
EXTT7=
EXTT8=
EXTT9=
EXTT10=
EXTT11=
EXTT12=
EXTT13=
EXTT14=
EXTT15=
EXTT16=
EXTT17=
EXTT18=
EXTT19=
EXTT20=
EXTT21=
EXTT22=
EXTT23=
EXTT24=
EXTT25=
EXTT26=
EXTT27=
EXTT28=
EXTT29=
PLAYORDER=
